<svg xmlns="http://www.w3.org/2000/svg" viewBox="0 0 700 400" width="700" height="400" role="img" aria-label="自宅を中心に車で30分・60分・90分の円を描き、60分以内の円の中にある予約が空いているゴルフ場だけを旗で示した図"><rect width="700" height="400" fill="#f4f8fc"/><circle cx="350" cy="206" r="182" fill="none" stroke="#b8c4d2" stroke-width="2" stroke-dasharray="6 7"/><circle cx="350" cy="206" r="124" fill="#dcecfb" stroke="#1479d2" stroke-width="3.5"/><circle cx="350" cy="206" r="62" fill="#c4def7" stroke="#1479d2" stroke-width="1.5" stroke-dasharray="4 5"/><line x1="190" y1="111" x2="190" y2="77" stroke="#c3ccd7" stroke-width="3" stroke-linecap="round"/><path d="M191.5 77 L212 84 L191.5 91 Z" fill="#d5dbe3"/><ellipse cx="190" cy="111" rx="9" ry="3" fill="#c3ccd7" opacity=".35"/><line x1="520" y1="86" x2="520" y2="52" stroke="#c3ccd7" stroke-width="3" stroke-linecap="round"/><path d="M521.5 52 L542 59 L521.5 66 Z" fill="#d5dbe3"/><ellipse cx="520" cy="86" rx="9" ry="3" fill="#c3ccd7" opacity=".35"/><line x1="555" y1="276" x2="555" y2="242" stroke="#c3ccd7" stroke-width="3" stroke-linecap="round"/><path d="M556.5 242 L577 249 L556.5 256 Z" fill="#d5dbe3"/><ellipse cx="555" cy="276" rx="9" ry="3" fill="#c3ccd7" opacity=".35"/><line x1="145" y1="301" x2="145" y2="267" stroke="#c3ccd7" stroke-width="3" stroke-linecap="round"/><path d="M146.5 267 L167 274 L146.5 281 Z" fill="#d5dbe3"/><ellipse cx="145" cy="301" rx="9" ry="3" fill="#c3ccd7" opacity=".35"/><line x1="410" y1="384" x2="410" y2="350" stroke="#c3ccd7" stroke-width="3" stroke-linecap="round"/><path d="M411.5 350 L432 357 L411.5 364 Z" fill="#d5dbe3"/><ellipse cx="410" cy="384" rx="9" ry="3" fill="#c3ccd7" opacity=".35"/><line x1="110" y1="176" x2="110" y2="142" stroke="#c3ccd7" stroke-width="3" stroke-linecap="round"/><path d="M111.5 142 L132 149 L111.5 156 Z" fill="#d5dbe3"/><ellipse cx="110" cy="176" rx="9" ry="3" fill="#c3ccd7" opacity=".35"/><line x1="618" y1="186" x2="618" y2="152" stroke="#c3ccd7" stroke-width="3" stroke-linecap="round"/><path d="M619.5 152 L640 159 L619.5 166 Z" fill="#d5dbe3"/><ellipse cx="618" cy="186" rx="9" ry="3" fill="#c3ccd7" opacity=".35"/><line x1="230" y1="376" x2="230" y2="342" stroke="#c3ccd7" stroke-width="3" stroke-linecap="round"/><path d="M231.5 342 L252 349 L231.5 356 Z" fill="#d5dbe3"/><ellipse cx="230" cy="376" rx="9" ry="3" fill="#c3ccd7" opacity=".35"/><line x1="262" y1="166" x2="262" y2="132" stroke="#0b5cab" stroke-width="3" stroke-linecap="round"/><path d="M263.5 132 L284 139 L263.5 146 Z" fill="#e5322d"/><ellipse cx="262" cy="166" rx="9" ry="3" fill="#0b5cab" opacity=".35"/><line x1="372" y1="122" x2="372" y2="88" stroke="#0b5cab" stroke-width="3" stroke-linecap="round"/><path d="M373.5 88 L394 95 L373.5 102 Z" fill="#e5322d"/><ellipse cx="372" cy="122" rx="9" ry="3" fill="#0b5cab" opacity=".35"/><line x1="442" y1="258" x2="442" y2="224" stroke="#0b5cab" stroke-width="3" stroke-linecap="round"/><path d="M443.5 224 L464 231 L443.5 238 Z" fill="#e5322d"/><ellipse cx="442" cy="258" rx="9" ry="3" fill="#0b5cab" opacity=".35"/><line x1="310" y1="298" x2="310" y2="264" stroke="#0b5cab" stroke-width="3" stroke-linecap="round"/><path d="M311.5 264 L332 271 L311.5 278 Z" fill="#e5322d"/><ellipse cx="310" cy="298" rx="9" ry="3" fill="#0b5cab" opacity=".35"/><line x1="398" y1="250" x2="398" y2="216" stroke="#0b5cab" stroke-width="3" stroke-linecap="round"/><path d="M399.5 216 L420 223 L399.5 230 Z" fill="#e5322d"/><ellipse cx="398" cy="250" rx="9" ry="3" fill="#0b5cab" opacity=".35"/><line x1="250" y1="256" x2="250" y2="222" stroke="#0b5cab" stroke-width="3" stroke-linecap="round"/><path d="M251.5 222 L272 229 L251.5 236 Z" fill="#e5322d"/><ellipse cx="250" cy="256" rx="9" ry="3" fill="#0b5cab" opacity=".35"/><path d="M326 208 L350 184 L374 208 L368 208 L368 232 L332 232 L332 208 Z" fill="#0b5cab" stroke="#fff" stroke-width="3" stroke-linejoin="round"/><rect x="344" y="216" width="12" height="16" rx="2" fill="#fff"/><rect x="442" y="110" width="120" height="40" rx="20" fill="#1479d2"/><text x="502" y="138" text-anchor="middle" font-family="Hiragino Sans, Hiragino Kaku Gothic ProN, sans-serif" font-size="22" font-weight="800" fill="#fff">60分以内</text></svg>